# AST/ASF file generated using VICON BodyLanguage
# -----------------------------------------------
:version 1.10
:name VICON
:units
  mass 1.0
  length 0.45
  angle deg
:documentation
   .ast/.asf automatically generated from VICON data using
   VICON BodyBuilder and BodyLanguage model FoxedUp or BRILLIANT.MOD
:root
   order TX TY TZ RX RY RZ
   axis XYZ
   position 0 0 0  
   orientation 0 0 0 
:bonedata
  begin
     id 1 
     name lhipjoint
     direction 0.440178 -0.822639 0.359871 
     length 2.53113 
     axis 0 0 0  XYZ
  end
  begin
     id 2 
     name lfemur
     direction 0.34202 -0.939693 0  
     length 7.88132  
     axis 0 0 20  XYZ
    dof rx ry rz
    limits (-160.0 20.0)
           (-70.0 70.0)
           (-60.0 70.0)
  end
  begin
     id 3 
     name ltibia
     direction 0.34202 -0.939693 0   
     length 8.43783   
     axis 0 0 20   XYZ
    dof rx
    limits (-10.0 170.0)
  end
  begin
     id 4 
     name lfoot
     direction 0.0886351 -0.243523 0.965837   
     length 2.63414   
     axis -90 7.62852e-016 20   XYZ
    dof rx rz
    limits (-45.0 90.0)
           (-70.0 20.0)
  end
  begin
     id 5 
     name ltoes
     direction 1.53703e-011 -4.21717e-011 1   
     length 1.31427   
     axis -90 7.62852e-016 20   XYZ
    dof rx
    limits (-90.0 20.0)
  end
  begin
     id 6 
     name rhipjoint
     direction -0.399779 -0.839773 0.367367   
     length 2.47948  
     axis 0 0 0  XYZ 
  end
  begin
     id 7 
     name rfemur
     direction -0.34202 -0.939693 0   
     length 7.74806   
     axis 0 0 -20   XYZ
    dof rx ry rz
    limits (-160.0 20.0)
           (-70.0 70.0)
           (-70.0 60.0)
  end
  begin
     id 8 
     name rtibia
     direction -0.34202 -0.939693 0   
     length 8.74432   
     axis 0 0 -20   XYZ
    dof rx
    limits (-10.0 170.0)
 end
 begin
     id 9 
     name rfoot
     direction -0.108514 -0.298139 0.948334   
     length 2.66102  
     axis -90 -7.62852e-016 -20   XYZ
    dof rx rz
    limits (-45.0 90.0)
           (-20.0 70.0)
  end
  begin
     id 10 
     name rtoes
     direction -1.53392e-011 -4.22077e-011 1   
     length 1.31983   
     axis -90 -7.62852e-016 -20   XYZ
    dof rx
    limits (-90.0 20.0)
  end
  begin
     id 11 
     name lowerback
     direction 0.0113257 0.999866 0.0118602   
     length 2.58694   
     axis 0 0 0   XYZ
    dof rx ry rz
    limits (-20.0 45.0)
           (-30.0 30.0)
           (-30.0 30.0)
  end
  begin
     id 12 
     name upperback
     direction -0.0164747 0.995193 -0.0965375   
     length 2.52368   
     axis 0 0 0   XYZ
    dof rx ry rz
    limits (-20.0 45.0)
           (-30.0 30.0)
           (-30.0 30.0)
  end
  begin
     id 13 
     name thorax
     direction -0.0194301 0.99433 -0.104552   
     length 2.56099   
     axis 0 0 0   XYZ
    dof rx ry rz
    limits (-20.0 45.0)
           (-30.0 30.0)
           (-30.0 30.0)
  end
  begin
     id 14 
     name lowerneck
     direction 0.0148543 0.995587 -0.092657   
     length 1.71582   
     axis 0 0 0   XYZ
    dof rx ry rz
    limits (-20.0 45.0)
           (-30.0 30.0)
           (-30.0 30.0)
  end
  begin
     id 15 
     name upperneck
     direction -0.0135467 0.993656 -0.111639   
     length 1.68937   
     axis 0 0 0   XYZ
    dof rx ry rz
    limits (-20.0 45.0)
           (-30.0 30.0)
           (-30.0 30.0)
  end
  begin
     id 16
     name head
     direction -0.00615349 0.999547 -0.029448  
     length 1.7462  
     axis 0 0 0   XYZ
    dof rx ry rz
    limits (-20.0 45.0)
           (-30.0 30.0)
           (-30.0 30.0)
  end
  begin
     id 17 
     name lclavicle
     direction 0.988267 0.149885 0.0293713  
     length 4.47222  
     axis 0 0 0   XYZ
    dof ry rz
    limits (-20.0 10.0)
           (0.0 20.0)
  end
  begin
     id 18 
     name lhumerus
     direction 1 -4.48986e-011 -1.14833e-027   
     length 5.37148   
     axis 180 -30 -90   XYZ
    dof rx ry rz
    limits (-60.0 90.0)
           (-90.0 90.0)
           (-90.0 90.0)
  end
  begin
     id 19
     name lradius
     direction 0.999998 0.00170963 -0.000987055   
     length 3.94212   
     axis 180 -30 -90   XYZ
    dof rx
    limits (-10.0 170.0)
  end
  begin
     id 20
     name lwrist
     direction 0.999998 7.53149e-005 -0.00194706   
     length 1.97106   
     axis 4.65056e-015 90 90   XYZ
    dof ry
    limits (-180.0 0.0)
 end
  begin
     id 21 
     name lhand
     direction 1 -4.48973e-011 -1.31746e-026   
     length 1.17917   
     axis 8.4065e-015 90 90   XYZ
    dof rx rz
    limits (-90.0 90.0)
           (-45.0 45.0)
  end
  begin
     id 22 
     name lfingers
     direction 1 -4.49107e-011 -2.63492e-026   
     length 0.950679   
     axis 1.6813e-014 90 90   XYZ
    dof rx
    limits (0.0 90.0)
  end
  begin
     id 23
     name lthumb
     direction 0.707107 -6.35048e-011 0.707107   
     length 1.36499   
     axis -90 45 2.85299e-015   XYZ
    dof rx rz
    limits (-45.0 45.0)
           (-45.0 45.0)
  end
  begin
     id 24 
     name rclavicle
     direction -0.996699 0.0642895 -0.0495725   
     length 4.62611  
     axis 0 0 0   XYZ 
    dof ry rz
    limits (-10.0 20.0)
           (-20.0 0.0)
  end
  begin
     id 25 
     name rhumerus
     direction -1 -4.48919e-011 -2.41059e-027  
     length 5.4981   
     axis 180 30 90   XYZ
    dof rx ry rz
    limits (-90.0 60.0)
           (-90.0 90.0)
           (-90.0 90.0)
  end
  begin
     id 26 
     name rradius
     direction -0.999999 0.00118101 -0.000681858   
     length 3.48381   
     axis 180 30 90   XYZ
    dof rx
    limits (-10.0 170.0)
  end
  begin
     id 27 
     name rwrist
     direction -0.999999 0.000321823 -0.00132288   
     length 1.7419   
     axis 4.65056e-015 -90 -90   XYZ
    dof ry
    limits (-180.0 0.0)
  end
  begin
     id 28
     name rhand
     direction -1 -4.49022e-011 -1.31746e-026   
     length 1.34932   
     axis 8.4065e-015 -90 -90   XYZ
    dof rx rz
    limits (-90.0 90.0)
           (-45.0 45.0)
  end
  begin
     id 29
     name rfingers
     direction -1 -4.49178e-011 -2.63492e-026   
     length 1.08785   
     axis 1.6813e-014 -90 -90   XYZ
    dof rx
    limits (0.0 90.0)
  end
  begin
     id 30
     name rthumb
     direction -0.707107 -6.34713e-011 0.707107   
     length 1.56195   
     axis -90 -45 -2.85299e-015   XYZ
    dof rx rz
    limits (-45.0 45.0)
           (-45.0 45.0)
  end
:hierarchy
  begin
    root lhipjoint rhipjoint lowerback
    lhipjoint lfemur
    lfemur ltibia
    ltibia lfoot
    lfoot ltoes
    rhipjoint rfemur
    rfemur rtibia
    rtibia rfoot
    rfoot rtoes
    lowerback upperback
    upperback thorax
    thorax lowerneck lclavicle rclavicle
    lowerneck upperneck
    upperneck head
    lclavicle lhumerus
    lhumerus lradius
    lradius lwrist
    lwrist lhand lthumb
    lhand lfingers
    rclavicle rhumerus
    rhumerus rradius
    rradius rwrist
    rwrist rhand rthumb
    rhand rfingers
  end

#!OML:ASF X:\für Bonn\!DataBase\2005_08_10_Bjorn_Final\c3d\bjorn.ASF
:FULLY-SPECIFIED
:DEGREES
1
root 2.38904 18.652 3.17355 -178.366 0.62916 -181.702
lowerback 9.80494 0.314387 11.9369
upperback 14.3924 3.95517 -0.641186
thorax 11.0551 4.49634 -7.11802
lowerneck -0.72195 12.8947 2.71254
upperneck 2.65968 17.746 -20.6164
head 3.07054 8.31383 -5.9055
rclavicle -1.59028e-015 -1.59028e-014
rhumerus -29.8387 -13.2739 -80.2295
rradius 57.6253
rwrist -6.07203
rhand -11.6099 14.3611
rfingers 7.12502
rthumb 14.4329 -15.1171
lclavicle -1.59028e-015 -1.59028e-014
lhumerus -34.5334 -11.899 89.7742
lradius 47.0522
lwrist -23.7031
lhand -40.7175 -27.6261
lfingers 7.12502
lthumb -13.6594 1.90566
rfemur -22.3276 -15.3644 20.5415
rtibia 43.5597
rfoot -14.3626 29.3988
rtoes -0.570516
lfemur -23.5797 0.767684 -21.5378
ltibia 44.5673
lfoot -18.5094 1.97563
ltoes -1.47709
2
root 2.39995 18.6501 3.17215 -178.403 0.282308 -181.451
lowerback 9.80772 0.335697 12.0193
upperback 14.4133 4.00665 -0.536456
thorax 11.088 4.53456 -7.04207
lowerneck -0.668731 12.836 2.63282
upperneck 2.52648 17.6378 -20.5281
head 2.99317 8.27696 -5.88398
rclavicle -1.98785e-014 -1.27222e-014
rhumerus -30.1266 -13.6078 -79.6753
rradius 57.0154
rwrist -5.93317
rhand -11.8111 14.3545
rfingers 7.12502
rthumb 14.2391 -15.1373
lclavicle -1.98785e-014 -1.27222e-014
lhumerus -34.4625 -12.1059 89.9843
lradius 47.3077
lwrist -23.5499
lhand -40.5489 -27.6707
lfingers 7.12502
lthumb -13.4969 1.87194
rfemur -22.2336 -15.7243 20.8333
rtibia 43.4859
rfoot -14.3772 29.5455
rtoes -1.06246
lfemur -23.5232 -0.177834 -21.1907
ltibia 44.5617
lfoot -18.6998 2.49324
ltoes -1.55231
3
root 2.40977 18.6492 3.17223 -178.454 -0.0796862 -181.27
lowerback 9.86811 3.98679 12.7093
upperback 14.4805 3.07746 0.246637
thorax 11.436 1.82633 -6.95464
lowerneck -0.624722 12.7558 2.53954
upperneck 2.40561 17.5011 -20.4272
head 2.91542 8.22435 -5.85808
rclavicle -3.65764e-014 -4.77083e-015
rhumerus -30.438 -13.9284 -79.1192
rradius 56.4275
rwrist -5.78997
rhand -12.0243 14.2793
rfingers 7.12502
rthumb 14.0336 -15.227
lclavicle -3.65764e-014 -4.77083e-015
lhumerus -34.3716 -12.2958 90.1719
lradius 47.5666
lwrist -23.4654
lhand -40.381 -27.7404
lfingers 7.12502
lthumb -13.335 1.81293
rfemur -22.1351 -16.0291 21.0569
rtibia 43.4116
rfoot -14.489 29.5737
rtoes -1.56021
lfemur -23.5098 -1.21372 -20.8966
ltibia 44.6209
lfoot -18.7547 2.93518
ltoes -1.81658
4
root 2.41788 18.6484 3.17255 -178.51 -0.461335 -181.16
lowerback 9.908 4.02375 12.7512
upperback 14.4972 3.12698 0.322306
thorax 11.4446 1.85026 -6.89242
lowerneck -0.565006 12.6811 2.41855
upperneck 2.25904 17.3665 -20.3191
head 2.82487 8.17517 -5.82756
rclavicle -7.15625e-015 1.43125e-014
rhumerus -30.7339 -14.1613 -78.5718
rradius 55.8676
rwrist -5.6808
rhand -12.2681 14.1878
rfingers 7.12502
rthumb 13.7986 -15.3346
lclavicle -7.15625e-015 1.43125e-014
lhumerus -34.2581 -12.4337 90.3167
lradius 47.8548
lwrist -23.5076
lhand -40.3768 -27.9883
lfingers 7.12502
lthumb -13.331 1.56529
rfemur -22.0368 -16.3378 21.202
rtibia 43.3438
rfoot -14.6636 29.5516
rtoes -2.20215
lfemur -23.53 -2.29452 -20.6646
ltibia 44.747
lfoot -18.7084 3.26228
ltoes -2.58178
5
root 2.42481 18.6498 3.17336 -178.548 -0.832987 -181.133
lowerback 9.95717 4.07694 12.757
upperback 14.4993 3.20972 0.367318
thorax 11.4341 1.89053 -6.844
lowerneck -0.534541 12.5973 2.29605
upperneck 2.15551 17.2273 -20.179
head 2.74861 8.11985 -5.78436
rclavicle -6.99722e-014 -4.29375e-014
rhumerus -31.0539 -14.4484 -78.0425
rradius 55.3434
rwrist -5.58675
rhand -12.4589 14.0284
rfingers 7.12502
rthumb 13.6147 -15.5064
lclavicle -6.99722e-014 -4.29375e-014
lhumerus -34.0825 -12.5557 90.4159
lradius 48.116
lwrist -23.6097
lhand -40.3943 -28.3434
lfingers 7.12502
lthumb -13.3479 1.20907
rfemur -21.965 -16.6018 21.2658
rtibia 43.2828
rfoot -14.8916 29.4413
rtoes -2.82671
lfemur -23.6326 -3.3684 -20.5122
ltibia 44.9666
lfoot -18.5099 3.4451
ltoes -2.90173
6
root 2.42844 18.6545 3.17484 -178.568 -1.19702 -181.162
lowerback 9.99162 4.12516 12.7445
upperback 14.4999 3.28612 0.4031
thorax 11.4264 1.92744 -6.7954
lowerneck -0.509501 12.5208 2.14598
upperneck 2.04228 17.0959 -20.0643
head 2.67181 8.0666 -5.74394
rclavicle -3.49861e-014 1.74931e-014
rhumerus -31.3623 -14.5935 -77.5249
rradius 54.8586
rwrist -5.55554
rhand -12.6583 13.8483
rfingers 7.12502
rthumb 13.4225 -15.6992
lclavicle -3.49861e-014 1.74931e-014
lhumerus -33.9072 -12.555 90.4966
lradius 48.4386
lwrist -23.7778
lhand -40.3172 -28.5242
lfingers 7.12502
lthumb -13.2736 1.03309
rfemur -21.9117 -16.85 21.2686
rtibia 43.2197
rfoot -15.1643 29.2698
rtoes -3.49205
lfemur -23.8207 -4.38389 -20.4207
ltibia 45.2929
lfoot -18.1851 3.49919
ltoes -2.65115
7
root 2.42861 18.6592 3.17676 -178.623 -1.53357 -181.23
lowerback 10.0696 4.19024 12.7775
upperback 14.51 3.38996 0.41259
thorax 11.4215 1.98416 -6.80233
lowerneck -0.537416 12.4356 2.00884
upperneck 2.0049 16.9676 -19.9177
head 2.62522 8.00775 -5.68985
rclavicle -1.59028e-014 -2.8625e-014
rhumerus -31.6595 -14.7238 -77.0454
rradius 54.3637
rwrist -5.60216
rhand -12.8634 13.6646
rfingers 7.12502
rthumb 13.2248 -15.8959
lclavicle -1.59028e-014 -2.8625e-014
lhumerus -33.6863 -12.5777 90.525
lradius 48.802
lwrist -23.9871
lhand -40.204 -28.6041
lfingers 7.12502
lthumb -13.1644 0.960336
rfemur -21.8171 -17.0843 21.2038
rtibia 43.1595
rfoot -15.3934 29.0622
rtoes -3.9069
lfemur -24.0539 -5.25845 -20.3903
ltibia 45.7584
lfoot -17.7286 3.53803
ltoes -2.78232
8
root 2.42559 18.6651 3.18008 -178.668 -1.83979 -181.34
lowerback 10.1662 4.25507 12.8104
upperback 14.5104 3.49984 0.413317
thorax 11.3959 2.04398 -6.81991
lowerneck -0.596349 12.36 1.8043
upperneck 2.00187 16.8569 -19.7168
head 2.58562 7.95381 -5.60578
rclavicle 2.62396e-014 4.77083e-015
rhumerus -31.9384 -14.6807 -76.5985
rradius 53.8803
rwrist -5.9447
rhand -13.1096 13.4517
rfingers 7.12502
rthumb 12.9876 -16.124
lclavicle 2.62396e-014 4.77083e-015
lhumerus -33.5165 -12.5446 90.5355
lradius 49.29
lwrist -24.2174
lhand -40.0219 -28.448
lfingers 7.12502
lthumb -12.9889 1.12764
rfemur -21.7353 -17.1068 21.097
rtibia 43.104
rfoot -15.6165 28.6004
rtoes -3.9204
lfemur -24.3871 -6.01673 -20.4216
ltibia 46.3637
lfoot -17.1784 3.63269
ltoes -3.32778
